<svg width="28" height="28" viewBox="0 0 28 28" fill="none" xmlns="http://www.w3.org/2000/svg">
<path d="M14.0001 13.762C17.1722 13.762 19.7437 11.2036 19.7437 8.04769C19.7437 4.89178 17.1722 2.3334 14.0001 2.3334C10.828 2.3334 8.25649 4.89178 8.25649 8.04769C8.25649 11.2036 10.828 13.762 14.0001 13.762Z" fill="#222222"/>
<path d="M16.9915 16.143H11.0086C7.53854 16.143 4.66675 19.0002 4.66675 22.4526C4.66675 23.2859 5.02572 24.0002 5.74367 24.3573C6.82059 24.9526 9.21376 25.6669 14.0001 25.6669C18.7864 25.6669 21.1796 24.9526 22.2565 24.3573C22.8548 24.0002 23.3334 23.2859 23.3334 22.4526C23.3334 18.8811 20.4616 16.143 16.9915 16.143Z" fill="#222222"/>
</svg>
