<svg width="15" height="16" viewBox="0 0 15 16" fill="none" xmlns="http://www.w3.org/2000/svg">
<path fill-rule="evenodd" clip-rule="evenodd" d="M2.30769 3.44486C2.30769 2.29181 3.25478 1.35708 4.42308 1.35708H7.5C7.81863 1.35708 8.07692 1.61201 8.07692 1.92648C8.07692 2.24094 7.81863 2.49587 7.5 2.49587H4.42308C3.89203 2.49587 3.46154 2.92075 3.46154 3.44486V4.20405C3.46154 4.51852 3.20324 4.77344 2.88462 4.77344C2.56599 4.77344 2.30769 4.51852 2.30769 4.20405V3.44486ZM2.88462 11.2266C3.20324 11.2266 3.46154 11.4815 3.46154 11.796V12.5551C3.46154 13.0793 3.89203 13.5041 4.42308 13.5041H7.5C7.81863 13.5041 8.07692 13.7591 8.07692 14.0735C8.07692 14.388 7.81863 14.6429 7.5 14.6429H4.42308C3.25478 14.6429 2.30769 13.7082 2.30769 12.5551V11.796C2.30769 11.4815 2.56599 11.2266 2.88462 11.2266Z" fill="#CB1F30"/>
<path fill-rule="evenodd" clip-rule="evenodd" d="M8.07692 2.58963C8.07692 1.92868 8.74441 1.47016 9.37242 1.69972L13.2186 3.10562C13.5958 3.2435 13.8462 3.59854 13.8462 3.99553V12.0045C13.8462 12.4014 13.5958 12.7565 13.2186 12.8944L9.37242 14.3003C8.74442 14.5298 8.07692 14.0713 8.07692 13.4104V2.58963ZM9.77316 0.631823C8.39156 0.126797 6.92308 1.13554 6.92308 2.58963V13.4104C6.92308 14.8645 8.39156 15.8732 9.77317 15.3682L13.6193 13.9623C14.4492 13.6589 15 12.8778 15 12.0045V3.99553C15 3.12215 14.4492 2.34106 13.6193 2.03772L9.77316 0.631823Z" fill="#CB1F30"/>
<path fill-rule="evenodd" clip-rule="evenodd" d="M2.52333 6.079C2.29803 5.85664 1.93274 5.85664 1.70744 6.079L0.168977 7.59738C-0.0563256 7.81974 -0.0563256 8.18026 0.168977 8.40262L1.70744 9.92101C1.93274 10.1434 2.29803 10.1434 2.52333 9.92101C2.74863 9.69864 2.74863 9.33812 2.52333 9.11576L1.96974 8.5694H5.19231C5.51093 8.5694 5.76923 8.31447 5.76923 8C5.76923 7.68553 5.51093 7.43061 5.19231 7.43061H1.96974L2.52333 6.88424C2.74863 6.66188 2.74863 6.30136 2.52333 6.079Z" fill="#CB1F30"/>
</svg>
