<svg width="20" height="21" viewBox="0 0 20 21" fill="none" xmlns="http://www.w3.org/2000/svg">
<path d="M17.5 4.34277H2.5C2.25136 4.34277 2.0129 4.44155 1.83709 4.61736C1.66127 4.79318 1.5625 5.03163 1.5625 5.28027V15.9053C1.5625 16.3197 1.72712 16.7171 2.02015 17.0101C2.31317 17.3032 2.7106 17.4678 3.125 17.4678H16.875C17.2894 17.4678 17.6868 17.3032 17.9799 17.0101C18.2729 16.7171 18.4375 16.3197 18.4375 15.9053V5.28027C18.4375 5.03163 18.3387 4.79318 18.1629 4.61736C17.9871 4.44155 17.7486 4.34277 17.5 4.34277ZM15.0898 6.21777L10 10.8834L4.91016 6.21777H15.0898ZM3.4375 15.5928V7.41152L9.36641 12.8467C9.53932 13.0052 9.7654 13.0932 10 13.0932C10.2346 13.0932 10.4607 13.0052 10.6336 12.8467L16.5625 7.41152V15.5928H3.4375Z" fill="#222222"/>
</svg>
