<svg width="20" height="20" viewBox="0 0 20 20" fill="none" xmlns="http://www.w3.org/2000/svg">
<path d="M18.3111 16.4062C17.24 14.5263 15.5674 13.0615 13.5627 12.2477C14.5596 11.4999 15.296 10.4575 15.6676 9.26802C16.0392 8.07853 16.0271 6.80228 15.633 5.62005C15.2389 4.43782 14.4829 3.40955 13.4719 2.6809C12.461 1.95225 11.2464 1.56015 10.0002 1.56015C8.75401 1.56015 7.53942 1.95225 6.52847 2.6809C5.51752 3.40955 4.76146 4.43782 4.36738 5.62005C3.9733 6.80228 3.96119 8.07853 4.33276 9.26802C4.70433 10.4575 5.44075 11.4999 6.43769 12.2477C4.43294 13.0615 2.76038 14.5263 1.68925 16.4062C1.62288 16.513 1.57864 16.6319 1.55917 16.7561C1.5397 16.8803 1.54539 17.0071 1.57591 17.129C1.60642 17.2509 1.66114 17.3654 1.7368 17.4658C1.81247 17.5661 1.90753 17.6502 2.01635 17.7131C2.12517 17.776 2.24552 17.8163 2.37025 17.8318C2.49497 17.8472 2.62153 17.8374 2.74239 17.8029C2.86325 17.7685 2.97595 17.7101 3.07379 17.6312C3.17162 17.5523 3.2526 17.4545 3.31191 17.3437C4.72753 14.8969 7.22753 13.4375 10.0002 13.4375C12.7728 13.4375 15.2728 14.8976 16.6885 17.3437C16.817 17.5504 17.0209 17.699 17.2569 17.7581C17.493 17.8172 17.7428 17.7821 17.9536 17.6604C18.1643 17.5386 18.3194 17.3397 18.3861 17.1057C18.4529 16.8716 18.426 16.6208 18.3111 16.4062ZM5.93769 7.49999C5.93769 6.69651 6.17595 5.91106 6.62234 5.24299C7.06874 4.57492 7.70321 4.05421 8.44554 3.74673C9.18786 3.43925 10.0047 3.3588 10.7927 3.51555C11.5808 3.67231 12.3047 4.05922 12.8728 4.62737C13.441 5.19552 13.8279 5.91939 13.9846 6.70744C14.1414 7.49549 14.0609 8.31232 13.7534 9.05465C13.446 9.79697 12.9253 10.4314 12.2572 10.8778C11.5891 11.3242 10.8037 11.5625 10.0002 11.5625C8.92313 11.5613 7.89053 11.1328 7.12894 10.3712C6.36734 9.60965 5.93893 8.57705 5.93769 7.49999Z" fill="black"/>
</svg>
